# Blender v3.0.1 OBJ File: 'player.blend'
# www.blender.org
mtllib player.mtl
o RL_Cube.002
v 0.000000 0.000000 0.125000
v 0.000000 0.750000 0.125000
v 0.000000 0.000000 -0.125000
v 0.000000 0.750000 -0.125000
v 0.250000 0.000000 0.125000
v 0.250000 0.750000 0.125000
v 0.250000 0.000000 -0.125000
v 0.250000 0.750000 -0.125000
vt 0.312435 0.187177
vt 0.250274 0.000692
vt 0.312435 0.000692
vt 0.499971 0.187578
vt 0.437546 0.000303
vt 0.499971 0.000303
vt 0.437410 0.187390
vt 0.375042 0.000287
vt 0.437410 0.000287
vt 0.374639 0.187035
vt 0.312557 0.000788
vt 0.374639 0.000788
vt 0.437377 0.187752
vt 0.375151 0.249978
vt 0.375151 0.187752
vt 0.374821 0.187666
vt 0.312735 0.249752
vt 0.312735 0.187666
vt 0.250274 0.187177
vt 0.437546 0.187578
vt 0.375042 0.187390
vt 0.312557 0.187035
vt 0.437377 0.249978
vt 0.374821 0.249752
vn -1.0000 0.0000 0.0000
vn 0.0000 0.0000 -1.0000
vn 1.0000 0.0000 0.0000
vn 0.0000 0.0000 1.0000
vn 0.0000 -1.0000 0.0000
vn 0.0000 1.0000 0.0000
usemtl Player
s off
f 2/1/1 3/2/1 1/3/1
f 4/4/2 7/5/2 3/6/2
f 8/7/3 5/8/3 7/9/3
f 6/10/4 1/11/4 5/12/4
f 7/13/5 1/14/5 3/15/5
f 4/16/6 6/17/6 8/18/6
f 2/1/1 4/19/1 3/2/1
f 4/4/2 8/20/2 7/5/2
f 8/7/3 6/21/3 5/8/3
f 6/10/4 2/22/4 1/11/4
f 7/13/5 5/23/5 1/14/5
f 4/16/6 2/24/6 6/17/6
o LL_Cube.003
v -0.250000 0.000000 0.125000
v -0.250000 0.750000 0.125000
v -0.250000 0.000000 -0.125000
v -0.250000 0.750000 -0.125000
v 0.000000 0.000000 0.125000
v 0.000000 0.750000 0.125000
v 0.000000 0.000000 -0.125000
v 0.000000 0.750000 -0.125000
vt 0.062540 0.687006
vt 0.000378 0.500522
vt 0.062540 0.500522
vt 0.250076 0.687407
vt 0.187651 0.500132
vt 0.250076 0.500132
vt 0.187515 0.687219
vt 0.125147 0.500116
vt 0.187515 0.500116
vt 0.124743 0.686864
vt 0.062661 0.500618
vt 0.124743 0.500618
vt 0.187481 0.687581
vt 0.125255 0.749807
vt 0.125255 0.687581
vt 0.124925 0.687495
vt 0.062839 0.749581
vt 0.062839 0.687495
vt 0.000378 0.687006
vt 0.187651 0.687407
vt 0.125147 0.687219
vt 0.062661 0.686864
vt 0.187481 0.749807
vt 0.124925 0.749581
vn -1.0000 0.0000 0.0000
vn 0.0000 0.0000 -1.0000
vn 1.0000 0.0000 0.0000
vn 0.0000 0.0000 1.0000
vn 0.0000 -1.0000 0.0000
vn 0.0000 1.0000 0.0000
usemtl Player
s off
f 10/25/7 11/26/7 9/27/7
f 12/28/8 15/29/8 11/30/8
f 16/31/9 13/32/9 15/33/9
f 14/34/10 9/35/10 13/36/10
f 15/37/11 9/38/11 11/39/11
f 12/40/12 14/41/12 16/42/12
f 10/25/7 12/43/7 11/26/7
f 12/28/8 16/44/8 15/29/8
f 16/31/9 14/45/9 13/32/9
f 14/34/10 10/46/10 9/35/10
f 15/37/11 13/47/11 9/38/11
f 12/40/12 10/48/12 14/41/12
o LA_Cube.004
v -0.500000 0.750000 0.125000
v -0.500000 1.500000 0.125000
v -0.500000 0.750000 -0.125000
v -0.500000 1.500000 -0.125000
v -0.250000 0.750000 0.125000
v -0.250000 1.500000 0.125000
v -0.250000 0.750000 -0.125000
v -0.250000 1.500000 -0.125000
vt 0.687143 0.686523
vt 0.625300 0.500993
vt 0.687143 0.500993
vt 0.874670 0.686689
vt 0.812724 0.500852
vt 0.874670 0.500852
vt 0.812258 0.686754
vt 0.750261 0.500762
vt 0.812258 0.500762
vt 0.749828 0.686983
vt 0.687656 0.500467
vt 0.749828 0.500467
vt 0.812030 0.687775
vt 0.750183 0.749622
vt 0.750183 0.687775
vt 0.749731 0.687704
vt 0.687795 0.749640
vt 0.687795 0.687704
vt 0.625300 0.686523
vt 0.812724 0.686689
vt 0.750261 0.686754
vt 0.687656 0.686983
vt 0.812030 0.749622
vt 0.749731 0.749640
vn -1.0000 0.0000 0.0000
vn 0.0000 0.0000 -1.0000
vn 1.0000 0.0000 0.0000
vn 0.0000 0.0000 1.0000
vn 0.0000 -1.0000 0.0000
vn 0.0000 1.0000 0.0000
usemtl Player
s off
f 18/49/13 19/50/13 17/51/13
f 20/52/14 23/53/14 19/54/14
f 24/55/15 21/56/15 23/57/15
f 22/58/16 17/59/16 21/60/16
f 23/61/17 17/62/17 19/63/17
f 20/64/18 22/65/18 24/66/18
f 18/49/13 20/67/13 19/50/13
f 20/52/14 24/68/14 23/53/14
f 24/55/15 22/69/15 21/56/15
f 22/58/16 18/70/16 17/59/16
f 23/61/17 21/71/17 17/62/17
f 20/64/18 18/72/18 22/65/18
o RA_Cube.005
v 0.250000 0.750000 0.125000
v 0.250000 1.500000 0.125000
v 0.250000 0.750000 -0.125000
v 0.250000 1.500000 -0.125000
v 0.500000 0.750000 0.125000
v 0.500000 1.500000 0.125000
v 0.500000 0.750000 -0.125000
v 0.500000 1.500000 -0.125000
vt 0.562431 0.187376
vt 0.500085 0.000337
vt 0.562431 0.000337
vt 0.749891 0.187376
vt 0.687607 0.000523
vt 0.749891 0.000523
vt 0.687389 0.187314
vt 0.625191 0.000720
vt 0.687389 0.000720
vt 0.624948 0.187340
vt 0.562728 0.000678
vt 0.624948 0.000678
vt 0.687272 0.187843
vt 0.625244 0.249871
vt 0.625244 0.187843
vt 0.624719 0.187804
vt 0.562764 0.249758
vt 0.562764 0.187804
vt 0.500085 0.187376
vt 0.687607 0.187376
vt 0.625191 0.187314
vt 0.562728 0.187340
vt 0.687272 0.249871
vt 0.624719 0.249758
vn -1.0000 0.0000 0.0000
vn 0.0000 0.0000 -1.0000
vn 1.0000 0.0000 0.0000
vn 0.0000 0.0000 1.0000
vn 0.0000 -1.0000 0.0000
vn 0.0000 1.0000 0.0000
usemtl Player
s off
f 26/73/19 27/74/19 25/75/19
f 28/76/20 31/77/20 27/78/20
f 32/79/21 29/80/21 31/81/21
f 30/82/22 25/83/22 29/84/22
f 31/85/23 25/86/23 27/87/23
f 28/88/24 30/89/24 32/90/24
f 26/73/19 28/91/19 27/74/19
f 28/76/20 32/92/20 31/77/20
f 32/79/21 30/93/21 29/80/21
f 30/82/22 26/94/22 25/83/22
f 31/85/23 29/95/23 25/86/23
f 28/88/24 26/96/24 30/89/24
o Body_Cube.006
v -0.250000 0.750000 0.125000
v -0.250000 1.500000 0.125000
v -0.250000 0.750000 -0.125000
v -0.250000 1.500000 -0.125000
v 0.250000 0.750000 0.125000
v 0.250000 1.500000 0.125000
v 0.250000 0.750000 -0.125000
v 0.250000 1.500000 -0.125000
vt 0.312347 0.686929
vt 0.250334 0.500890
vt 0.312347 0.500890
vt 0.624628 0.687258
vt 0.500042 0.500379
vt 0.624628 0.500379
vt 0.500119 0.687087
vt 0.437812 0.500164
vt 0.500119 0.500164
vt 0.437112 0.687129
vt 0.312944 0.500878
vt 0.437112 0.500878
vt 0.438293 0.750031
vt 0.562222 0.688066
vt 0.562222 0.750031
vt 0.313239 0.749983
vt 0.437051 0.688077
vt 0.437051 0.749983
vt 0.250334 0.686929
vt 0.500042 0.687258
vt 0.437812 0.687087
vt 0.312944 0.687129
vt 0.438293 0.688066
vt 0.313239 0.688077
vn -1.0000 0.0000 0.0000
vn 0.0000 0.0000 -1.0000
vn 1.0000 0.0000 0.0000
vn 0.0000 0.0000 1.0000
vn 0.0000 -1.0000 0.0000
vn 0.0000 1.0000 0.0000
usemtl Player
s off
f 34/97/25 35/98/25 33/99/25
f 36/100/26 39/101/26 35/102/26
f 40/103/27 37/104/27 39/105/27
f 38/106/28 33/107/28 37/108/28
f 39/109/29 33/110/29 35/111/29
f 36/112/30 38/113/30 40/114/30
f 34/97/25 36/115/25 35/98/25
f 36/100/26 40/116/26 39/101/26
f 40/103/27 38/117/27 37/104/27
f 38/106/28 34/118/28 33/107/28
f 39/109/29 37/119/29 33/110/29
f 36/112/30 34/120/30 38/113/30
o Cube_Cube.007
v -0.250000 1.500000 0.250000
v -0.250000 2.000000 0.250000
v -0.250000 1.500000 -0.250000
v -0.250000 2.000000 -0.250000
v 0.250000 1.500000 0.250000
v 0.250000 2.000000 0.250000
v 0.250000 1.500000 -0.250000
v 0.250000 2.000000 -0.250000
vt 0.124811 0.874873
vt 0.000223 0.750285
vt 0.124811 0.750285
vt 0.499555 0.874414
vt 0.375766 0.750625
vt 0.499555 0.750625
vt 0.373980 0.873643
vt 0.251515 0.751179
vt 0.373980 0.751179
vt 0.249768 0.874807
vt 0.125193 0.750232
vt 0.249768 0.750232
vt 0.373783 0.876574
vt 0.250988 0.999369
vt 0.250988 0.876574
vt 0.249269 0.875522
vt 0.125309 0.999482
vt 0.125309 0.875522
vt 0.000223 0.874873
vt 0.375766 0.874414
vt 0.251515 0.873643
vt 0.125193 0.874807
vt 0.373783 0.999369
vt 0.249269 0.999482
vn -1.0000 0.0000 0.0000
vn 0.0000 0.0000 -1.0000
vn 1.0000 0.0000 0.0000
vn 0.0000 0.0000 1.0000
vn 0.0000 -1.0000 0.0000
vn 0.0000 1.0000 0.0000
usemtl Player
s off
f 42/121/31 43/122/31 41/123/31
f 44/124/32 47/125/32 43/126/32
f 48/127/33 45/128/33 47/129/33
f 46/130/34 41/131/34 45/132/34
f 47/133/35 41/134/35 43/135/35
f 44/136/36 46/137/36 48/138/36
f 42/121/31 44/139/31 43/122/31
f 44/124/32 48/140/32 47/125/32
f 48/127/33 46/141/33 45/128/33
f 46/130/34 42/142/34 41/131/34
f 47/133/35 45/143/35 41/134/35
f 44/136/36 42/144/36 46/137/36
